<?xml version="1.0" standalone="no"?>
<!DOCTYPE svg PUBLIC "-//W3C//DTD SVG 20010904//EN"
 "http://www.w3.org/TR/2001/REC-SVG-20010904/DTD/svg10.dtd">
<svg version="1.0" xmlns="http://www.w3.org/2000/svg"
 width="322.000000pt" height="322.000000pt" viewBox="0 0 322.000000 322.000000"
 preserveAspectRatio="xMidYMid meet">
<metadata>
Created by potrace 1.14, written by Peter Selinger 2001-2017
</metadata>
<g transform="translate(0.000000,322.000000) scale(0.100000,-0.100000)"
fill="#000000" stroke="none">
<path d="M0 1610 l0 -1610 1610 0 1610 0 0 1610 0 1610 -1610 0 -1610 0 0
-1610z m2155 760 l0 -475 -565 0 -565 0 -3 465 c-1 256 0 471 3 478 3 10 122
12 567 10 l563 -3 0 -475z m-426 -769 c8 -15 1 -40 -30 -112 -22 -51 -50 -130
-61 -176 -21 -82 -40 -105 -53 -63 -4 11 -3 35 0 53 7 30 101 292 111 309 9
14 23 9 33 -11z m-879 -1 c10 0 26 -7 35 -16 24 -24 1 -35 -56 -28 l-46 6 -17
-43 c-8 -24 -36 -102 -61 -174 -25 -71 -49 -133 -54 -138 -4 -4 -14 -1 -21 7
-10 13 -4 41 35 163 26 82 50 154 52 161 4 8 -9 12 -45 12 -56 0 -75 14 -40
30 26 12 166 29 186 24 8 -2 22 -4 32 -4z m258 -80 c4 -27 -21 -52 -44 -43
-17 6 -18 27 -1 53 16 27 41 21 45 -10z m-134 -59 c19 -21 15 -51 -9 -71 -19
-16 -53 -4 -37 12 14 14 16 38 2 38 -14 0 -80 -60 -80 -74 0 -7 14 -25 31 -42
45 -42 52 -60 33 -78 -18 -18 -76 -21 -105 -6 -31 17 -22 30 23 30 l42 0 -37
34 c-44 40 -46 64 -10 107 55 65 115 85 147 50z m563 -23 c23 -22 30 -56 15
-73 -5 -6 -23 -55 -40 -111 -33 -104 -53 -134 -90 -134 -22 0 -62 50 -62 78 0
19 20 14 39 -10 26 -31 44 -18 64 44 22 70 22 72 -8 52 -46 -30 -89 8 -78 70
3 15 22 46 43 67 43 45 81 51 117 17z m332 -21 c22 -60 -59 -177 -123 -177
-76 0 -71 125 8 185 53 40 99 37 115 -8z m211 2 c21 -38 -20 -123 -78 -161
-34 -22 -60 -23 -84 -1 -25 22 -23 68 7 118 48 82 123 104 155 44z m464 10
c28 -33 31 -44 17 -54 -5 -3 -23 -50 -40 -105 -37 -117 -65 -156 -104 -146
-24 6 -57 49 -57 76 0 18 27 11 42 -12 22 -33 43 -17 66 51 l21 61 -29 -15
c-36 -19 -45 -19 -64 1 -22 22 -20 70 5 110 44 71 100 84 143 33z m-1354 11
c12 -7 12 -16 4 -49 -6 -23 -10 -41 -8 -41 2 0 24 16 50 35 37 28 49 33 65 25
15 -8 19 -22 19 -58 0 -26 3 -57 6 -69 4 -16 1 -25 -11 -29 -24 -10 -40 12
-40 53 0 20 -5 38 -10 40 -6 2 -38 -19 -72 -46 -61 -49 -83 -52 -83 -11 0 18
53 160 60 160 3 0 12 -4 20 -10z m1010 -5 c11 -13 10 -22 -3 -50 -9 -19 -14
-35 -11 -35 3 0 25 14 49 31 64 46 79 38 86 -46 7 -73 1 -92 -25 -82 -11 5
-16 20 -16 52 0 59 -14 58 -84 -6 -47 -43 -59 -49 -71 -39 -21 17 -19 39 8
101 13 30 27 62 30 72 8 21 21 22 37 2z m-1132 -37 c6 -30 -38 -158 -54 -158
-26 0 -27 30 -4 106 18 55 28 74 39 72 9 -2 17 -11 19 -20z m162 -528 c12 -36
25 -71 27 -77 3 -8 -3 -13 -17 -13 -11 0 -19 3 -17 8 3 4 1 17 -4 30 -6 16
-16 22 -38 22 -25 0 -30 -5 -36 -30 -4 -16 -10 -30 -15 -30 -5 0 -2 17 7 38
13 34 18 38 44 34 28 -4 29 -4 18 27 -6 17 -15 28 -20 25 -12 -7 -11 3 2 28
14 26 21 17 49 -62z m102 -5 c3 -74 1 -85 -14 -85 -14 0 -17 13 -20 85 -3 74
-1 85 14 85 14 0 17 -13 20 -85z m78 55 c0 -27 2 -29 29 -24 34 7 51 -15 51
-64 0 -30 -11 -44 -44 -56 -19 -7 -19 -6 -2 13 26 28 18 85 -11 89 -21 3 -23
0 -23 -47 0 -39 -4 -51 -15 -51 -12 0 -15 15 -15 79 0 54 -4 81 -12 84 -7 3
-1 6 15 6 24 1 27 -3 27 -29z m288 -21 c15 -1 15 -2 0 -6 -24 -6 -25 -88 -2
-101 14 -8 14 -10 2 -15 -27 -10 -42 11 -48 67 -3 31 -3 56 1 56 4 0 11 10 15
23 l8 22 4 -22 c2 -13 11 -24 20 -24z m-104 -5 c12 -4 16 -20 16 -55 0 -32 4
-49 13 -49 8 0 7 -3 -3 -10 -8 -5 -19 -5 -25 -1 -5 5 -19 5 -30 1 -11 -4 -26
-5 -32 -3 -20 8 -15 41 6 53 29 15 38 12 15 -4 -15 -11 -16 -17 -7 -27 6 -6
19 -9 27 -6 23 9 17 91 -6 95 -11 2 -18 -3 -18 -12 0 -18 -16 -30 -24 -17 -8
12 21 41 39 41 7 0 20 -3 29 -6z m176 -5 c0 -5 6 -7 13 -3 8 6 8 3 -2 -9 -8
-10 -12 -33 -9 -57 3 -33 0 -40 -14 -40 -15 0 -18 9 -18 53 0 30 3 57 7 60 10
10 23 8 23 -4z m50 -9 c0 -11 -4 -20 -10 -20 -5 0 -10 9 -10 20 0 11 5 20 10
20 6 0 10 -9 10 -20z m111 10 c32 -18 22 -110 -12 -110 -4 0 -4 14 1 31 12 39
-4 82 -28 77 -13 -3 -17 -14 -17 -56 0 -28 -2 -52 -5 -52 -16 0 -30 27 -30 56
0 54 43 79 91 54z m123 4 c9 -3 16 -11 16 -17 0 -7 -4 -7 -12 1 -16 16 -48 15
-48 0 0 -7 14 -21 31 -30 22 -13 30 -24 27 -40 -2 -12 -9 -23 -16 -26 -7 -2
-10 2 -6 11 3 10 -6 22 -25 33 -57 34 -29 92 33 68z m-54 -99 c10 -12 10 -15
-4 -15 -9 0 -16 7 -16 15 0 8 2 15 4 15 2 0 9 -7 16 -15z"/>
<path d="M1037 2833 c-4 -3 -7 -51 -7 -105 l0 -98 560 0 561 0 -3 103 -3 102
-551 3 c-303 1 -554 -1 -557 -5z m791 -99 c3 -22 -21 -39 -39 -28 -11 6 -12
38 -2 48 13 13 38 1 41 -20z m126 9 c4 -9 0 -23 -9 -32 -13 -14 -17 -14 -30 0
-19 19 -10 49 15 49 10 0 21 -8 24 -17z m126 1 c11 -12 10 -18 -3 -32 -16 -15
-18 -15 -33 0 -19 18 -12 48 9 48 8 0 20 -7 27 -16z"/>
<path d="M1032 2263 l3 -358 555 0 555 0 3 358 2 357 -560 0 -560 0 2 -357z
m1072 258 l27 -29 -82 -71 c-70 -61 -87 -71 -109 -66 -32 8 -31 6 -22 38 4 16
38 54 82 92 41 36 75 65 76 65 0 0 13 -13 28 -29z m-530 -244 c6 -105 5 -156
-3 -173 l-11 -24 -224 0 c-123 0 -231 3 -240 6 -14 5 -16 30 -16 168 0 90 3
166 7 170 4 3 113 5 242 4 l236 -3 9 -148z m254 96 c-32 -2 -86 -2 -120 0 -35
2 -9 3 57 3 66 0 94 -1 63 -3z m60 -80 c-42 -2 -114 -2 -160 0 -46 1 -11 3 77
3 88 0 125 -2 83 -3z m0 -80 c-42 -2 -114 -2 -160 0 -46 1 -11 3 77 3 88 0
125 -2 83 -3z m0 -80 c-42 -2 -114 -2 -160 0 -46 1 -11 3 77 3 88 0 125 -2 83
-3z"/>
<path d="M2003 2468 c-73 -62 -92 -98 -53 -98 11 0 51 27 90 61 69 59 71 62
54 80 -9 10 -18 19 -18 19 -1 0 -34 -28 -73 -62z"/>
<path d="M1090 2352 l0 -58 64 4 c83 5 129 -10 187 -65 42 -39 48 -42 60 -27
18 22 108 64 137 64 21 0 22 4 22 70 l0 70 -235 0 -235 0 0 -58z m395 -22 c0
-20 -6 -26 -27 -28 -24 -3 -28 0 -28 21 0 30 9 39 35 35 14 -2 20 -10 20 -28z"/>
<path d="M1444 2339 c-10 -17 13 -36 27 -22 12 12 4 33 -11 33 -5 0 -12 -5
-16 -11z"/>
<path d="M1106 2277 c-14 -10 -16 -26 -14 -92 l3 -80 116 -3 117 -3 20 41 20
41 -29 34 c-17 19 -49 43 -73 54 -48 24 -133 28 -160 8z"/>
<path d="M1492 2241 c-56 -19 -105 -58 -128 -103 -8 -15 -14 -29 -14 -33 0 -3
47 -5 105 -5 l105 0 0 80 c0 44 -3 80 -7 80 -5 -1 -32 -9 -61 -19z"/>
<path d="M1458 1403 c-19 -22 -38 -58 -38 -72 0 -21 39 -11 59 15 38 49 18
101 -21 57z"/>
<path d="M1764 1360 c-28 -41 -26 -74 2 -68 21 4 51 45 60 81 10 44 -30 36
-62 -13z"/>
<path d="M1981 1371 c-29 -40 -32 -76 -7 -76 22 0 52 38 62 78 5 23 3 27 -14
27 -11 0 -30 -13 -41 -29z"/>
<path d="M2455 1395 c-30 -30 -34 -75 -6 -75 23 0 51 41 51 75 0 32 -14 32
-45 0z"/>
</g>
</svg>
